<?xml version="1.0" ?>
<!DOCTYPE svg  PUBLIC '-//W3C//DTD SVG 1.1//EN'
        'http://www.w3.org/Graphics/SVG/1.1/DTD/svg11.dtd'>
<svg enable-background="new 0 0 91 91" height="91px" id="Layer_1" version="1.1" viewBox="0 0 91 91" width="91px" xml:space="preserve" xmlns="http://www.w3.org/2000/svg" xmlns:xlink="http://www.w3.org/1999/xlink">
    <g>
        <rect fill="#fff" height="38.5" width="42.5" x="23.5" y="22"/>
        <path fill="#f47c00" d="M20.854,56.488c0,3.594,2.926,6.518,6.52,6.518h10.465l-6.01,8.414c-0.547,0.765-0.369,1.826,0.395,2.372   c0.299,0.214,0.645,0.317,0.986,0.317c0.531,0,1.053-0.248,1.385-0.712l7.424-10.392h6.033l7.424,10.392   c0.332,0.464,0.854,0.712,1.385,0.712c0.342,0,0.688-0.104,0.986-0.317c0.764-0.546,0.941-1.607,0.395-2.372l-6.012-8.414h10.465   c3.594,0,6.52-2.924,6.52-6.518V24.246h3.871v-3.4h-3.871H20.854h-3.869v3.4h3.869V56.488z M24.254,24.246h41.559v32.242   c0,1.72-1.4,3.118-3.119,3.118h-35.32c-1.721,0-3.119-1.398-3.119-3.118V24.246z"/>
        <rect fill="#f47c00" height="8.783" width="3.398" x="33.211" y="44.928"/>
        <rect fill="#f47c00" height="14.166" width="3.4" x="42.836" y="39.545"/>
        <rect fill="#f47c00" height="9.916" width="3.4" x="53.734" y="43.795"/>
        <polygon fill="#f47c00" points="41.383,33.07 54.102,39.935 61.947,32.26 59.57,29.829 53.514,35.754 41.035,29.02 28.258,39.059 30.359,41.73     "/>
    </g>
</svg>